<svg xmlns="http://www.w3.org/2000/svg" xmlns:svgjs="http://svgjs.com/svgjs" xmlns:xlink="http://www.w3.org/1999/xlink" width="288" height="288"><svg xmlns="http://www.w3.org/2000/svg" width="288" height="288" viewBox="0 0 24 24"><path fill="#eaeaea" d="M22.5 21h-21A1.5 1.5 0 0 1 0 19.5v-15A1.5 1.5 0 0 1 1.5 3h21A1.5 1.5 0 0 1 24 4.5v15a1.5 1.5 0 0 1-1.5 1.5z" class="colorEAEAEA svgShape"/><path fill="#4c3575" d="M3 21H1.5A1.5 1.5 0 0 1 0 19.5v-15a1.5 1.5 0 0 1 3 0V21z" class="colorD54C3F svgShape"/><path fill="#4c3575" d="M21 21h1.5a1.5 1.5 0 0 0 1.5-1.5v-15a1.5 1.5 0 0 0-3 0V21z" class="colorB63524 svgShape"/><path fill="#4c3575" d="M23.359 5.73a1.5 1.5 0 0 0-1.718-2.46l-9.64 7.018h-.002L2.359 3.27A1.501 1.501 0 0 0 .641 5.73l-.04-.029L12 14l11.359-8.27zm.04-.029L12 14l11.399-8.299z" class="colorDE5145 svgShape"/><path fill="#efefef" d="M22.5 3c-.319 0-.616.1-.859.27l-9.64 7.018h-.002L2.359 3.27A1.496 1.496 0 0 0 1.5 3h21z" class="colorEFEFEF svgShape"/><path fill="#4c3575" d="M3.001 8.094.473 5.59l-.001.002c.053.05.109.096.169.138l-.04-.029 2.4 1.747v.664-.018z" class="colorC64132 svgShape"/><path fill="#e3e3e3" d="M10.334 15.296 3 21l.001-12.968 7.332 7.262.001.002z" class="colorE3E3E3 svgShape"/><linearGradient id="a" x1="-261.914" x2="-261.679" y1="1097.147" y2="1097.147" gradientTransform="matrix(38.2761 0 0 -38.2761 10028.054 42005.938)" gradientUnits="userSpaceOnUse"><stop class="stopColorc8c8c8 svgShape" offset="0" stop-color="#c8c8c8"/><stop class="stopColorcdcdcd svgShape" offset="1" stop-color="#cdcdcd"/></linearGradient><path fill="url(#a)" d="M10.334 15.296 12 14 3.001 7.448v.583l7.332 7.262.001.003z"/><linearGradient id="b" x1="-261.722" x2="-261.444" y1="1097.073" y2="1097.073" gradientTransform="matrix(38.2761 0 0 -38.2761 10028.054 42005.938)" gradientUnits="userSpaceOnUse"><stop class="stopColord9d9d9 svgShape" offset="0" stop-color="#d9d9d9"/><stop class="stopColore2e2e2 svgShape" offset="1" stop-color="#e2e2e2"/></linearGradient><path fill="url(#b)" d="M16.03 21H21V7.448L12 14l-1.667 1.293L16.03 21z"/></svg></svg>